<mxfile host="app.diagrams.net" modified="2023-07-18T08:43:26.658Z" agent="Mozilla/5.0 (Windows NT 10.0; Win64; x64) AppleWebKit/537.36 (KHTML, like Gecko) Chrome/114.0.0.0 Safari/537.36" etag="u-GZozwvybUJhyrLo28o" version="21.6.1" type="github">
  <diagram id="C5RBs43oDa-KdzZeNtuy" name="Page-1">
    <mxGraphModel dx="2261" dy="756" grid="1" gridSize="10" guides="1" tooltips="1" connect="1" arrows="1" fold="1" page="1" pageScale="1" pageWidth="827" pageHeight="1169" math="0" shadow="0">
      <root>
        <mxCell id="WIyWlLk6GJQsqaUBKTNV-0" />
        <mxCell id="WIyWlLk6GJQsqaUBKTNV-1" parent="WIyWlLk6GJQsqaUBKTNV-0" />
        <mxCell id="uYc_VSgmQDA0bpDjbVnB-13" value="" style="rounded=0;whiteSpace=wrap;html=1;fillColor=#fff2cc;strokeColor=#d6b656;" vertex="1" parent="WIyWlLk6GJQsqaUBKTNV-1">
          <mxGeometry x="50" y="360" width="630" height="240" as="geometry" />
        </mxCell>
        <mxCell id="uYc_VSgmQDA0bpDjbVnB-27" style="edgeStyle=orthogonalEdgeStyle;rounded=0;orthogonalLoop=1;jettySize=auto;html=1;" edge="1" parent="WIyWlLk6GJQsqaUBKTNV-1" source="uYc_VSgmQDA0bpDjbVnB-0" target="uYc_VSgmQDA0bpDjbVnB-24">
          <mxGeometry relative="1" as="geometry" />
        </mxCell>
        <mxCell id="uYc_VSgmQDA0bpDjbVnB-0" value="" style="ellipse;shape=doubleEllipse;html=1;dashed=0;whiteSpace=wrap;aspect=fixed;" vertex="1" parent="WIyWlLk6GJQsqaUBKTNV-1">
          <mxGeometry x="80" y="20" width="60" height="60" as="geometry" />
        </mxCell>
        <mxCell id="uYc_VSgmQDA0bpDjbVnB-49" style="edgeStyle=orthogonalEdgeStyle;rounded=0;orthogonalLoop=1;jettySize=auto;html=1;" edge="1" parent="WIyWlLk6GJQsqaUBKTNV-1" source="uYc_VSgmQDA0bpDjbVnB-1" target="uYc_VSgmQDA0bpDjbVnB-29">
          <mxGeometry relative="1" as="geometry" />
        </mxCell>
        <mxCell id="uYc_VSgmQDA0bpDjbVnB-1" value="Read Configs" style="rounded=1;whiteSpace=wrap;html=1;" vertex="1" parent="WIyWlLk6GJQsqaUBKTNV-1">
          <mxGeometry x="500" y="140" width="120" height="60" as="geometry" />
        </mxCell>
        <mxCell id="uYc_VSgmQDA0bpDjbVnB-7" style="edgeStyle=orthogonalEdgeStyle;rounded=0;orthogonalLoop=1;jettySize=auto;html=1;" edge="1" parent="WIyWlLk6GJQsqaUBKTNV-1" source="uYc_VSgmQDA0bpDjbVnB-3" target="uYc_VSgmQDA0bpDjbVnB-4">
          <mxGeometry relative="1" as="geometry" />
        </mxCell>
        <mxCell id="uYc_VSgmQDA0bpDjbVnB-8" style="edgeStyle=orthogonalEdgeStyle;rounded=0;orthogonalLoop=1;jettySize=auto;html=1;" edge="1" parent="WIyWlLk6GJQsqaUBKTNV-1" source="uYc_VSgmQDA0bpDjbVnB-3" target="uYc_VSgmQDA0bpDjbVnB-5">
          <mxGeometry relative="1" as="geometry" />
        </mxCell>
        <mxCell id="uYc_VSgmQDA0bpDjbVnB-9" style="edgeStyle=orthogonalEdgeStyle;rounded=0;orthogonalLoop=1;jettySize=auto;html=1;" edge="1" parent="WIyWlLk6GJQsqaUBKTNV-1" source="uYc_VSgmQDA0bpDjbVnB-3" target="uYc_VSgmQDA0bpDjbVnB-6">
          <mxGeometry relative="1" as="geometry" />
        </mxCell>
        <mxCell id="uYc_VSgmQDA0bpDjbVnB-3" value="Read active Sites" style="rounded=1;whiteSpace=wrap;html=1;" vertex="1" parent="WIyWlLk6GJQsqaUBKTNV-1">
          <mxGeometry x="300" y="260" width="120" height="60" as="geometry" />
        </mxCell>
        <mxCell id="uYc_VSgmQDA0bpDjbVnB-34" value="" style="edgeStyle=orthogonalEdgeStyle;rounded=0;orthogonalLoop=1;jettySize=auto;html=1;" edge="1" parent="WIyWlLk6GJQsqaUBKTNV-1" source="uYc_VSgmQDA0bpDjbVnB-4" target="uYc_VSgmQDA0bpDjbVnB-14">
          <mxGeometry relative="1" as="geometry" />
        </mxCell>
        <mxCell id="uYc_VSgmQDA0bpDjbVnB-35" value="get articles" style="edgeLabel;html=1;align=center;verticalAlign=middle;resizable=0;points=[];" vertex="1" connectable="0" parent="uYc_VSgmQDA0bpDjbVnB-34">
          <mxGeometry x="-0.25" y="2" relative="1" as="geometry">
            <mxPoint as="offset" />
          </mxGeometry>
        </mxCell>
        <mxCell id="uYc_VSgmQDA0bpDjbVnB-4" value="Site A" style="rounded=1;whiteSpace=wrap;html=1;" vertex="1" parent="WIyWlLk6GJQsqaUBKTNV-1">
          <mxGeometry x="120" y="400" width="120" height="60" as="geometry" />
        </mxCell>
        <mxCell id="uYc_VSgmQDA0bpDjbVnB-36" style="edgeStyle=orthogonalEdgeStyle;rounded=0;orthogonalLoop=1;jettySize=auto;html=1;" edge="1" parent="WIyWlLk6GJQsqaUBKTNV-1" source="uYc_VSgmQDA0bpDjbVnB-5" target="uYc_VSgmQDA0bpDjbVnB-30">
          <mxGeometry relative="1" as="geometry" />
        </mxCell>
        <mxCell id="uYc_VSgmQDA0bpDjbVnB-38" value="get articles" style="edgeLabel;html=1;align=center;verticalAlign=middle;resizable=0;points=[];" vertex="1" connectable="0" parent="uYc_VSgmQDA0bpDjbVnB-36">
          <mxGeometry x="-0.3" relative="1" as="geometry">
            <mxPoint as="offset" />
          </mxGeometry>
        </mxCell>
        <mxCell id="uYc_VSgmQDA0bpDjbVnB-5" value="Site B" style="rounded=1;whiteSpace=wrap;html=1;" vertex="1" parent="WIyWlLk6GJQsqaUBKTNV-1">
          <mxGeometry x="300" y="400" width="120" height="60" as="geometry" />
        </mxCell>
        <mxCell id="uYc_VSgmQDA0bpDjbVnB-37" style="edgeStyle=orthogonalEdgeStyle;rounded=0;orthogonalLoop=1;jettySize=auto;html=1;" edge="1" parent="WIyWlLk6GJQsqaUBKTNV-1" source="uYc_VSgmQDA0bpDjbVnB-6" target="uYc_VSgmQDA0bpDjbVnB-31">
          <mxGeometry relative="1" as="geometry" />
        </mxCell>
        <mxCell id="uYc_VSgmQDA0bpDjbVnB-39" value="get articles" style="edgeLabel;html=1;align=center;verticalAlign=middle;resizable=0;points=[];" vertex="1" connectable="0" parent="uYc_VSgmQDA0bpDjbVnB-37">
          <mxGeometry x="-0.2" relative="1" as="geometry">
            <mxPoint as="offset" />
          </mxGeometry>
        </mxCell>
        <mxCell id="uYc_VSgmQDA0bpDjbVnB-6" value="Site C" style="rounded=1;whiteSpace=wrap;html=1;" vertex="1" parent="WIyWlLk6GJQsqaUBKTNV-1">
          <mxGeometry x="490" y="400" width="120" height="60" as="geometry" />
        </mxCell>
        <mxCell id="uYc_VSgmQDA0bpDjbVnB-40" style="edgeStyle=orthogonalEdgeStyle;rounded=0;orthogonalLoop=1;jettySize=auto;html=1;" edge="1" parent="WIyWlLk6GJQsqaUBKTNV-1" source="uYc_VSgmQDA0bpDjbVnB-14" target="uYc_VSgmQDA0bpDjbVnB-15">
          <mxGeometry relative="1" as="geometry">
            <Array as="points">
              <mxPoint x="180" y="660" />
            </Array>
          </mxGeometry>
        </mxCell>
        <mxCell id="uYc_VSgmQDA0bpDjbVnB-14" value="store into a list" style="shape=parallelogram;perimeter=parallelogramPerimeter;whiteSpace=wrap;html=1;fixedSize=1;" vertex="1" parent="WIyWlLk6GJQsqaUBKTNV-1">
          <mxGeometry x="120" y="500" width="120" height="60" as="geometry" />
        </mxCell>
        <mxCell id="uYc_VSgmQDA0bpDjbVnB-44" style="edgeStyle=orthogonalEdgeStyle;rounded=0;orthogonalLoop=1;jettySize=auto;html=1;" edge="1" parent="WIyWlLk6GJQsqaUBKTNV-1" source="uYc_VSgmQDA0bpDjbVnB-15" target="uYc_VSgmQDA0bpDjbVnB-16">
          <mxGeometry relative="1" as="geometry" />
        </mxCell>
        <mxCell id="uYc_VSgmQDA0bpDjbVnB-15" value="Data Validation" style="rounded=1;whiteSpace=wrap;html=1;" vertex="1" parent="WIyWlLk6GJQsqaUBKTNV-1">
          <mxGeometry x="305" y="640" width="120" height="60" as="geometry" />
        </mxCell>
        <mxCell id="uYc_VSgmQDA0bpDjbVnB-45" style="edgeStyle=orthogonalEdgeStyle;rounded=0;orthogonalLoop=1;jettySize=auto;html=1;" edge="1" parent="WIyWlLk6GJQsqaUBKTNV-1" source="uYc_VSgmQDA0bpDjbVnB-16" target="uYc_VSgmQDA0bpDjbVnB-18">
          <mxGeometry relative="1" as="geometry" />
        </mxCell>
        <mxCell id="uYc_VSgmQDA0bpDjbVnB-16" value="Save to Database" style="rounded=1;whiteSpace=wrap;html=1;" vertex="1" parent="WIyWlLk6GJQsqaUBKTNV-1">
          <mxGeometry x="305" y="740" width="120" height="60" as="geometry" />
        </mxCell>
        <mxCell id="uYc_VSgmQDA0bpDjbVnB-53" style="edgeStyle=orthogonalEdgeStyle;rounded=0;orthogonalLoop=1;jettySize=auto;html=1;" edge="1" parent="WIyWlLk6GJQsqaUBKTNV-1" source="uYc_VSgmQDA0bpDjbVnB-18" target="uYc_VSgmQDA0bpDjbVnB-52">
          <mxGeometry relative="1" as="geometry" />
        </mxCell>
        <mxCell id="uYc_VSgmQDA0bpDjbVnB-18" value="Close Session" style="rounded=1;whiteSpace=wrap;html=1;" vertex="1" parent="WIyWlLk6GJQsqaUBKTNV-1">
          <mxGeometry x="490" y="740" width="120" height="60" as="geometry" />
        </mxCell>
        <mxCell id="uYc_VSgmQDA0bpDjbVnB-48" style="edgeStyle=orthogonalEdgeStyle;rounded=0;orthogonalLoop=1;jettySize=auto;html=1;" edge="1" parent="WIyWlLk6GJQsqaUBKTNV-1" source="uYc_VSgmQDA0bpDjbVnB-20" target="uYc_VSgmQDA0bpDjbVnB-1">
          <mxGeometry relative="1" as="geometry" />
        </mxCell>
        <mxCell id="uYc_VSgmQDA0bpDjbVnB-20" value="Open Session" style="rounded=1;whiteSpace=wrap;html=1;" vertex="1" parent="WIyWlLk6GJQsqaUBKTNV-1">
          <mxGeometry x="500" y="20" width="120" height="60" as="geometry" />
        </mxCell>
        <mxCell id="uYc_VSgmQDA0bpDjbVnB-47" style="edgeStyle=orthogonalEdgeStyle;rounded=0;orthogonalLoop=1;jettySize=auto;html=1;" edge="1" parent="WIyWlLk6GJQsqaUBKTNV-1" source="uYc_VSgmQDA0bpDjbVnB-24" target="uYc_VSgmQDA0bpDjbVnB-20">
          <mxGeometry relative="1" as="geometry" />
        </mxCell>
        <mxCell id="uYc_VSgmQDA0bpDjbVnB-24" value="Import nessecary modules and classes" style="rounded=1;whiteSpace=wrap;html=1;" vertex="1" parent="WIyWlLk6GJQsqaUBKTNV-1">
          <mxGeometry x="305" y="20" width="120" height="60" as="geometry" />
        </mxCell>
        <mxCell id="uYc_VSgmQDA0bpDjbVnB-50" style="edgeStyle=orthogonalEdgeStyle;rounded=0;orthogonalLoop=1;jettySize=auto;html=1;" edge="1" parent="WIyWlLk6GJQsqaUBKTNV-1" source="uYc_VSgmQDA0bpDjbVnB-29" target="uYc_VSgmQDA0bpDjbVnB-3">
          <mxGeometry relative="1" as="geometry" />
        </mxCell>
        <mxCell id="uYc_VSgmQDA0bpDjbVnB-29" value="Connect to SQL Database" style="rounded=1;whiteSpace=wrap;html=1;" vertex="1" parent="WIyWlLk6GJQsqaUBKTNV-1">
          <mxGeometry x="300" y="140" width="120" height="60" as="geometry" />
        </mxCell>
        <mxCell id="uYc_VSgmQDA0bpDjbVnB-41" style="edgeStyle=orthogonalEdgeStyle;rounded=0;orthogonalLoop=1;jettySize=auto;html=1;" edge="1" parent="WIyWlLk6GJQsqaUBKTNV-1" source="uYc_VSgmQDA0bpDjbVnB-30" target="uYc_VSgmQDA0bpDjbVnB-15">
          <mxGeometry relative="1" as="geometry">
            <Array as="points">
              <mxPoint x="360" y="620" />
              <mxPoint x="360" y="620" />
            </Array>
          </mxGeometry>
        </mxCell>
        <mxCell id="uYc_VSgmQDA0bpDjbVnB-30" value="store into a list" style="shape=parallelogram;perimeter=parallelogramPerimeter;whiteSpace=wrap;html=1;fixedSize=1;" vertex="1" parent="WIyWlLk6GJQsqaUBKTNV-1">
          <mxGeometry x="300" y="500" width="120" height="60" as="geometry" />
        </mxCell>
        <mxCell id="uYc_VSgmQDA0bpDjbVnB-43" style="edgeStyle=orthogonalEdgeStyle;rounded=0;orthogonalLoop=1;jettySize=auto;html=1;entryX=1;entryY=0.5;entryDx=0;entryDy=0;" edge="1" parent="WIyWlLk6GJQsqaUBKTNV-1" source="uYc_VSgmQDA0bpDjbVnB-31" target="uYc_VSgmQDA0bpDjbVnB-15">
          <mxGeometry relative="1" as="geometry">
            <Array as="points">
              <mxPoint x="550" y="660" />
              <mxPoint x="425" y="660" />
            </Array>
          </mxGeometry>
        </mxCell>
        <mxCell id="uYc_VSgmQDA0bpDjbVnB-31" value="store into a list" style="shape=parallelogram;perimeter=parallelogramPerimeter;whiteSpace=wrap;html=1;fixedSize=1;" vertex="1" parent="WIyWlLk6GJQsqaUBKTNV-1">
          <mxGeometry x="490" y="500" width="120" height="60" as="geometry" />
        </mxCell>
        <mxCell id="uYc_VSgmQDA0bpDjbVnB-32" value="Modules" style="shape=curlyBracket;whiteSpace=wrap;html=1;rounded=1;labelPosition=left;verticalLabelPosition=middle;align=right;verticalAlign=middle;" vertex="1" parent="WIyWlLk6GJQsqaUBKTNV-1">
          <mxGeometry x="20" y="360" width="20" height="240" as="geometry" />
        </mxCell>
        <mxCell id="uYc_VSgmQDA0bpDjbVnB-52" value="End" style="ellipse;shape=doubleEllipse;whiteSpace=wrap;html=1;aspect=fixed;strokeWidth=4;" vertex="1" parent="WIyWlLk6GJQsqaUBKTNV-1">
          <mxGeometry x="660" y="735" width="70" height="70" as="geometry" />
        </mxCell>
      </root>
    </mxGraphModel>
  </diagram>
</mxfile>
